<?xml version="1.0" encoding="utf-8"?>
<!-- Generator: Adobe Illustrator 20.1.0, SVG Export Plug-In . SVG Version: 6.00 Build 0)  -->
<svg version="1.1" id="Layer_1" xmlns="http://www.w3.org/2000/svg" xmlns:xlink="http://www.w3.org/1999/xlink" x="0px" y="0px"
	 viewBox="0 0 940 440" style="enable-background:new 0 0 940 440;" xml:space="preserve">
<style type="text/css">
	.st0{fill:#FFFFFF;fill-opacity:0;stroke:#000000;stroke-width:6;}
	.st1{fill:none;stroke:#000000;stroke-width:2;}
	.st2{font-family:'Arial-BoldMT';}
	.st3{font-size:25px;}
	.st4{font-family:'CourierNewPS-BoldMT';}
	.st5{font-size:28px;}
	.st6{font-family:'ArialMT';}
	.st7{font-family:'Arial-BoldItalicMT';}
	.st8{fill:#FFFFFF;fill-opacity:0;stroke:#000000;stroke-width:2;}
	.st9{fill:#FFFFFF;fill-opacity:0;stroke:#000000;stroke-width:2;stroke-linecap:round;}
	.st10{fill:#FFFFFF;fill-opacity:0;stroke:#000000;stroke-width:2;stroke-dasharray:6,3;}
	.st11{font-size:20px;}
</style>
<title>Bridge Pattern</title>
<g transform="translate(40,40)">
	<rect x="-30" y="-30" class="st0" width="320" height="162"/>
	<line class="st1" x1="-30" y1="30" x2="290" y2="30"/>
	<line class="st1" x1="-30" y1="80" x2="290" y2="80"/>
	<text transform="matrix(1 0 0 1 60.5481 15)" class="st2 st3">Abstraction</text>
	<text transform="matrix(1 0 0 1 0 65)" class="st4 st5">-</text>
	<text transform="matrix(1 0 0 1 30 65)" class="st6 st3">impl : Implementor</text>
	<text transform="matrix(1 0 0 1 0 115)" class="st4 st5">+</text>
	<text transform="matrix(1 0 0 1 30 115)" class="st6 st3">function()</text>
</g>
<g transform="translate(40,330)">
	<rect x="-30" y="-30" class="st0" width="320" height="132"/>
	<line class="st1" x1="-30" y1="30" x2="290" y2="30"/>
	<line class="st1" x1="-30" y1="50" x2="290" y2="50"/>
	<text transform="matrix(1 0 0 1 14.7107 15)" class="st2 st3">RefinedAbstraction</text>
	<text transform="matrix(1 0 0 1 0 85)" class="st4 st5">+</text>
	<text transform="matrix(1 0 0 1 30 85)" class="st6 st3">refinedFunction()</text>
</g>
<g transform="translate(560,40)">
	<rect x="-30" y="-30" class="st0" width="400" height="132"/>
	<line class="st1" x1="-30" y1="30" x2="370" y2="30"/>
	<line class="st1" x1="-30" y1="50" x2="370" y2="50"/>
	<text transform="matrix(1 0 0 1 94.9878 15)" class="st7 st3">Implementor</text>
	<text transform="matrix(1 0 0 1 0 85)" class="st4 st5">+</text>
	<text transform="matrix(1 0 0 1 30 85)" class="st6 st3">implementation()</text>
</g>
<g transform="translate(560,330)">
	<rect x="-30" y="-30" class="st0" width="400" height="132"/>
	<line class="st1" x1="-30" y1="30" x2="370" y2="30"/>
	<line class="st1" x1="-30" y1="50" x2="370" y2="50"/>
	<text transform="matrix(1 0 0 1 40.8069 15)" class="st2 st3">ConcreteImplementor</text>
	<text transform="matrix(1 0 0 1 0 85)" class="st4 st5">+</text>
	<text transform="matrix(1 0 0 1 30 85)" class="st6 st3">implementation()</text>
</g>
<g transform="translate(200,205)">
	<desc>class RefinedAbstraction extends Abstraction</desc>
	<path class="st8" d="M-30-28L-45,2h30L-30-28z"/>
	<line class="st1" x1="-30" y1="2" x2="-30" y2="95"/>
</g>
<g transform="translate(760,175)">
	<desc>class ConcreteImplementor extends Implementor</desc>
	<path class="st8" d="M-30-28L-45,2h30L-30-28z"/>
	<line class="st1" x1="-30" y1="2" x2="-30" y2="125"/>
</g>
<g transform="translate(360,105)">
	<desc>Abstraction has Implementor</desc>
	<path class="st8" d="M-25-30l20-10l20,10L-5-20L-25-30z"/>
	<line class="st1" x1="15" y1="-30" x2="170" y2="-30"/>
</g>
<g transform="translate(360,230)">
	<path class="st8" d="M270-10v50H-30v-70h280c5,5,5,15,0,20C255-8,265-8,270-10"/>
	<path class="st9" d="M250-30l20,20"/>
	<path class="st10" d="M-30,5h-35v-78"/>
	<circle class="st8" cx="-65" cy="-80" r="8"/>
	<text transform="matrix(1 0 0 1 -10 10)" class="st6 st11">this.impl.implementation();</text>
</g>
</svg>
